<svg xmlns="http://www.w3.org/2000/svg" version="1.1" viewBox="-5.0 -10.0 110.0 135.0">
 <g>
  <path d="m70.312 61.25v-3.75c1.875-0.625 3.125-2.3438 3.125-4.375v-6.25c0-2.6562-2.0312-4.6875-4.6875-4.6875h-37.5c-2.6562 0-4.6875 2.0312-4.6875 4.6875v6.25c0 2.0312 1.25 3.75 3.125 4.375v3.75c-1.875 0.625-3.125 2.3438-3.125 4.375s1.25 3.75 3.125 4.375v11.25c0 0.9375 0.625 1.5625 1.5625 1.5625h6.25c0.9375 0 1.5625-0.625 1.5625-1.5625v-4.6875h21.875v4.6875c0 0.9375 0.625 1.5625 1.5625 1.5625h6.25c0.9375 0 1.5625-0.625 1.5625-1.5625v-11.25c1.875-0.625 3.125-2.3438 3.125-4.375s-1.25-3.75-3.125-4.375zm-31.25-0.3125v-3.125h21.875v3.125zm-6.25-3.125h3.125v3.125h-3.125zm31.25 0h3.125v3.125h-3.125zm-34.375-10.938c0-0.9375 0.625-1.5625 1.5625-1.5625h37.5c0.9375 0 1.5625 0.625 1.5625 1.5625v6.25c0 0.9375-0.625 1.5625-1.5625 1.5625h-37.5c-0.9375 0-1.5625-0.625-1.5625-1.5625zm6.25 32.812h-3.125v-9.375h3.125zm3.125-6.25v-3.125h21.875v3.125zm28.125 6.25h-3.125v-9.375h3.125zm1.5625-12.5h-37.5c-0.9375 0-1.5625-0.625-1.5625-1.5625s0.625-1.5625 1.5625-1.5625h37.5c0.9375 0 1.5625 0.625 1.5625 1.5625s-0.625 1.5625-1.5625 1.5625z"/>
  <path d="m26.562 54.688c0-10.625-3.2812-37.5-10.938-37.5s-10.938 26.875-10.938 37.5c0 10.469 2.5 14.062 6.25 15.156v11.406c0 0.9375 0.625 1.5625 1.5625 1.5625h6.25c0.9375 0 1.5625-0.625 1.5625-1.5625v-11.406c3.75-1.0938 6.25-4.6875 6.25-15.156zm-9.375 25h-3.125v-9.375h1.5625 1.5625zm-1.5625-12.5c-4.6875 0-7.8125 0-7.8125-12.5 0-15.625 4.8438-34.375 7.8125-34.375s7.8125 18.75 7.8125 34.375c0 12.5-3.125 12.5-7.8125 12.5z"/>
  <path d="m95.312 54.688c0-10.625-3.2812-37.5-10.938-37.5s-10.938 26.875-10.938 37.5c0 10.469 2.5 14.062 6.25 15.156v11.406c0 0.9375 0.625 1.5625 1.5625 1.5625h6.25c0.9375 0 1.5625-0.625 1.5625-1.5625v-11.406c3.75-1.0938 6.25-4.6875 6.25-15.156zm-9.375 25h-3.125v-9.375h1.5625 1.5625zm-1.5625-12.5c-4.6875 0-7.8125 0-7.8125-12.5 0-15.625 4.8438-34.375 7.8125-34.375s7.8125 18.75 7.8125 34.375c0 12.5-3.125 12.5-7.8125 12.5z"/>
 </g>
<text x="0.0" y="117.5" font-size="5.0" font-weight="bold" font-family="Arbeit Regular, Helvetica, Arial-Unicode, Arial, Sans-serif" fill="#000000">Created by Cahya Kurniawan</text><text x="0.0" y="122.5" font-size="5.0" font-weight="bold" font-family="Arbeit Regular, Helvetica, Arial-Unicode, Arial, Sans-serif" fill="#000000">from Noun Project</text></svg>