<svg xmlns="http://www.w3.org/2000/svg" xmlns:xlink="http://www.w3.org/1999/xlink" version="1.1" x="0px" y="0px" viewBox="0 0 32 40" style="enable-background:new 0 0 32 32;" xml:space="preserve"><style type="text/css">
	.st0{display:none;}
	.st1{display:inline;}
</style><g><path d="M16,10.67c-3.525,0-6.394,2.868-6.394,6.393c0,3.525,2.868,6.393,6.394,6.393s6.394-2.868,6.394-6.393   C22.394,13.538,19.525,10.67,16,10.67z M16,21.656c-2.532,0-4.593-2.061-4.593-4.593c0-2.532,2.061-4.593,4.593-4.593   s4.593,2.061,4.593,4.593C20.593,19.595,18.532,21.656,16,21.656z"/><path d="M17.304,15.427l-1.972,1.588l-0.492-0.627c-0.308-0.391-0.872-0.46-1.264-0.152c-0.391,0.307-0.459,0.873-0.152,1.264   l1.055,1.344c0.148,0.189,0.367,0.311,0.605,0.338c0.034,0.004,0.068,0.006,0.103,0.006c0.204,0,0.404-0.069,0.564-0.199   l2.682-2.161c0.388-0.312,0.448-0.878,0.137-1.265C18.259,15.177,17.69,15.114,17.304,15.427z"/><path d="M26.422,3.645h-2.521V3.482c0-0.497-0.403-0.9-0.9-0.9s-0.9,0.403-0.9,0.9v0.163h-5.2V3.482c0-0.497-0.403-0.9-0.9-0.9   s-0.9,0.403-0.9,0.9v0.163h-5.2V3.482c0-0.497-0.403-0.9-0.9-0.9s-0.9,0.403-0.9,0.9v0.163H5.578c-2.47,0-4.479,2.009-4.479,4.479   v16.816c0,2.47,2.009,4.479,4.479,4.479h20.844c2.47,0,4.479-2.009,4.479-4.479V8.123C30.9,5.653,28.892,3.645,26.422,3.645z    M29.1,24.939c0,1.477-1.201,2.679-2.678,2.679H5.578c-1.477,0-2.678-1.202-2.678-2.679V8.123c0-1.477,1.201-2.679,2.678-2.679   h2.521v0.163c0,0.497,0.403,0.9,0.9,0.9s0.9-0.403,0.9-0.9V5.444h5.2v0.163c0,0.497,0.403,0.9,0.9,0.9s0.9-0.403,0.9-0.9V5.444h5.2   v0.163c0,0.497,0.403,0.9,0.9,0.9s0.9-0.403,0.9-0.9V5.444h2.521c1.477,0,2.678,1.202,2.678,2.679V24.939z"/></g><text x="0" y="47" fill="#000000" font-size="5px" font-weight="bold" font-family="'Helvetica Neue', Helvetica, Arial-Unicode, Arial, Sans-serif">Created by Rikas Dzihab</text><text x="0" y="52" fill="#000000" font-size="5px" font-weight="bold" font-family="'Helvetica Neue', Helvetica, Arial-Unicode, Arial, Sans-serif">from the Noun Project</text></svg>