<svg xmlns="http://www.w3.org/2000/svg" data-name="Layer 1" viewBox="0 0 32 40" x="0px" y="0px"><title>Artboard 21</title><path d="M21.14648,19.68066a.49971.49971,0,0,0,.5-.5V12.81934a.49971.49971,0,0,0-.5-.5h-10.293a.49971.49971,0,0,0-.5.5v6.36133a.49971.49971,0,0,0,.5.5Zm-3.96191-6.36133v2.40723l-.958-.48633a.49665.49665,0,0,0-.45312,0l-.958.48633V13.31934Zm-5.83105,0h2.46191V16.542a.50068.50068,0,0,0,.23828.42578.49492.49492,0,0,0,.48828.01953L16,16.24609l1.458.74121a.49768.49768,0,0,0,.48828-.01953.50068.50068,0,0,0,.23828-.42578V13.31934h2.46191v5.36133h-9.293Z"/><path d="M2,30.5H5.73047a.49971.49971,0,0,0,.5-.5v-.58789h2.6748a.49971.49971,0,0,0,.5-.5V28.793l5.64063.85254h3.61426a.49964.49964,0,0,0,.35352-.14648l4.707-4.707a2.12241,2.12241,0,0,0-.27051-3.22949,2.18563,2.18563,0,0,0-2.791.291l-2.207,2.20605H16.9873a3.53762,3.53762,0,0,0-3.49609-3.03125.49207.49207,0,0,0-.09961.00977l-3.98633.81067v-.087a.49971.49971,0,0,0-.5-.5H6.23047v-.58789a.49971.49971,0,0,0-.5-.5H2a.49971.49971,0,0,0-.5.5V30A.49971.49971,0,0,0,2,30.5Zm11.53906-8.47168a2.53627,2.53627,0,0,1,2.43341,2.03125H13.41309a.5.5,0,1,0,0,1h5.24609a.49964.49964,0,0,0,.35352-.14648l2.35352-2.35254a1.17523,1.17523,0,0,1,1.5-.18555,1.1224,1.1224,0,0,1,.14746,1.71l-4.56152,4.56055-3.33105.00586-5.71582-.86914V22.86914Zm-5.13379.2334v6.15039H6.23047V22.26172ZM2.5,21.17383H5.23047V29.5H2.5Z"/><path d="M30,1.5H26.26953a.49971.49971,0,0,0-.5.5v.58789h-2.6748a.49971.49971,0,0,0-.5.5V3.207L16.9541,2.35449H13.33984a.49964.49964,0,0,0-.35352.14648L8.2793,7.208A2.12241,2.12241,0,0,0,8.5498,10.4375a2.18574,2.18574,0,0,0,2.791-.291l2.207-2.20605H15.0127a3.53762,3.53762,0,0,0,3.49609,3.03125.49207.49207,0,0,0,.09961-.00977l3.98633-.81067v.087a.49971.49971,0,0,0,.5.5h2.6748v.58789a.49971.49971,0,0,0,.5.5H30a.49971.49971,0,0,0,.5-.5V2A.49971.49971,0,0,0,30,1.5ZM18.46094,9.97168a2.53627,2.53627,0,0,1-2.43341-2.03125h2.55939a.5.5,0,0,0,0-1H13.34082a.49964.49964,0,0,0-.35352.14648L10.63379,9.43945a1.17894,1.17894,0,0,1-1.5.18555,1.1224,1.1224,0,0,1-.14746-1.71l4.56152-4.56055,3.33105-.00586,5.71582.86914V9.13086Zm5.13379-.2334V3.58789h2.1748V9.73828ZM29.5,10.82617H26.76953V2.5H29.5Z"/><text x="0" y="47" fill="#000000" font-size="5px" font-weight="bold" font-family="'Helvetica Neue', Helvetica, Arial-Unicode, Arial, Sans-serif">Created by icon trip</text><text x="0" y="52" fill="#000000" font-size="5px" font-weight="bold" font-family="'Helvetica Neue', Helvetica, Arial-Unicode, Arial, Sans-serif">from the Noun Project</text></svg>