<svg xmlns="http://www.w3.org/2000/svg" xmlns:xlink="http://www.w3.org/1999/xlink" version="1.1" x="0px" y="0px" viewBox="0 0 100 125" style="enable-background:new 0 0 100 100;" xml:space="preserve"><g style="" display="none"><rect x="-57" y="-287.014" style="" width="1280" height="1310.409" display="inline" fill="#867878"/></g><g><path d="M17.401,33.766c-3.947,0-7.176,3.229-7.176,7.177v3.564c0,3.947,3.229,7.177,7.176,7.177h1.759   c3.947,0,7.176-3.229,7.176-7.177v-3.564c0-3.947-3.229-7.177-7.176-7.177H17.401z M22.455,40.942v3.564   c0,1.816-1.478,3.294-3.294,3.294h-1.759c-1.816,0-3.294-1.478-3.294-3.294v-3.564c0-1.816,1.478-3.294,3.294-3.294h1.759   C20.977,37.648,22.455,39.126,22.455,40.942z"/><path d="M31.562,64.549c0-5.129-4.197-9.326-9.326-9.326h-7.911C9.196,55.223,5,59.42,5,64.549v5.568h26.562V64.549z M27.68,66.234   H8.882v-1.686c0-3.001,2.442-5.443,5.443-5.443h7.911c3.001,0,5.443,2.442,5.443,5.443V66.234z"/><path d="M80.839,33.766c-3.947,0-7.177,3.229-7.177,7.177v3.564c0,3.947,3.229,7.177,7.177,7.177h1.759   c3.947,0,7.177-3.229,7.177-7.177v-3.564c0-3.947-3.229-7.177-7.177-7.177H80.839z M85.893,40.942v3.564   c0,1.816-1.478,3.294-3.294,3.294h-1.759c-1.816,0-3.294-1.478-3.294-3.294v-3.564c0-1.816,1.478-3.294,3.294-3.294h1.759   C84.415,37.648,85.893,39.126,85.893,40.942z"/><path d="M85.674,55.223h-7.911c-5.129,0-9.325,4.197-9.325,9.326v5.568H95v-5.568C95,59.42,90.803,55.223,85.674,55.223z    M91.118,66.234H72.32v-1.686c0-3.001,2.442-5.443,5.443-5.443h7.911c3.001,0,5.443,2.442,5.443,5.443V66.234z"/><path d="M50.911,47.8c3.947,0,7.176-3.229,7.176-7.177V37.06c0-3.947-3.229-7.177-7.176-7.177h-1.759   c-3.947,0-7.176,3.229-7.176,7.177v3.564c0,3.947,3.229,7.177,7.176,7.177H50.911z M45.858,40.624V37.06   c0-1.816,1.478-3.294,3.294-3.294h1.759c1.816,0,3.294,1.478,3.294,3.294v3.564c0,1.816-1.478,3.294-3.294,3.294h-1.759   C47.336,43.918,45.858,42.44,45.858,40.624z"/><path d="M63.313,60.666c0-5.129-4.197-9.326-9.326-9.326h-7.911c-5.129,0-9.325,4.197-9.325,9.326v9.451h26.562V60.666z    M59.431,66.234H40.633v-5.568c0-3.001,2.442-5.443,5.443-5.443h7.911c3.001,0,5.443,2.442,5.443,5.443V66.234z"/></g><text x="0" y="115" fill="#000000" font-size="5px" font-weight="bold" font-family="'Helvetica Neue', Helvetica, Arial-Unicode, Arial, Sans-serif">Created by Oksana Latysheva</text><text x="0" y="120" fill="#000000" font-size="5px" font-weight="bold" font-family="'Helvetica Neue', Helvetica, Arial-Unicode, Arial, Sans-serif">from the Noun Project</text></svg>