<svg xmlns="http://www.w3.org/2000/svg" xmlns:xlink="http://www.w3.org/1999/xlink" version="1.1" x="0px" y="0px" viewBox="0 0 32 40" style="enable-background:new 0 0 32 32;" xml:space="preserve"><path d="M29.6586914,29c0-0.5522461-0.4477539-1-1-1h-0.003418V13.4165039c0-0.284668-0.121582-0.5556641-0.3334961-0.7456055  L16.6665039,2.2543945c-0.3798828-0.3388672-0.953125-0.3388672-1.3330078,0L3.6782227,12.6708984  c-0.2119141,0.1899414-0.3334961,0.4609375-0.3334961,0.7456055V28h-0.003418c-0.5522461,0-1,0.4477539-1,1s0.4477539,1,1,1  h1.003418h23.3105469h1.003418C29.2109375,30,29.6586914,29.5522461,29.6586914,29z M10.5864258,28  c-0.3720703,0-0.6748047-0.3027344-0.6748047-0.6743164c0-1.2998047,1.0571289-2.3569336,2.3569336-2.3569336h7.4628906  c1.2998047,0,2.3569336,1.0571289,2.3569336,2.3569336C22.0883789,27.6972656,21.7856445,28,21.4135742,28H10.5864258z   M23.9916382,28c0.0568848-0.2167358,0.0967407-0.4400024,0.0967407-0.6743164c0-2.4023438-1.9545898-4.3569336-4.3569336-4.3569336  h-7.4628906c-2.4023438,0-4.3569336,1.9545898-4.3569336,4.3569336c0,0.234314,0.039856,0.4575806,0.0967407,0.6743164H5.3447266  V13.8637695L16,4.3413086l10.6552734,9.5224609V28H23.9916382z"/><path d="M16,12.4873047c-2.5009766,0-4.5356445,2.034668-4.5356445,4.5356445c0,2.5014648,2.034668,4.5361328,4.5356445,4.5361328  s4.5356445-2.034668,4.5356445-4.5361328C20.5356445,14.5219727,18.5009766,12.4873047,16,12.4873047z M16,19.559082  c-1.3979492,0-2.5356445-1.1376953-2.5356445-2.5361328c0-1.3979492,1.1376953-2.5356445,2.5356445-2.5356445  s2.5356445,1.1376953,2.5356445,2.5356445C18.5356445,18.4213867,17.3979492,19.559082,16,19.559082z"/><text x="0" y="47" fill="#000000" font-size="5px" font-weight="bold" font-family="'Helvetica Neue', Helvetica, Arial-Unicode, Arial, Sans-serif">Created by Riyan Resdian</text><text x="0" y="52" fill="#000000" font-size="5px" font-weight="bold" font-family="'Helvetica Neue', Helvetica, Arial-Unicode, Arial, Sans-serif">from the Noun Project</text></svg>