<svg xmlns:dc="http://purl.org/dc/elements/1.1/" xmlns:cc="http://creativecommons.org/ns#" xmlns:rdf="http://www.w3.org/1999/02/22-rdf-syntax-ns#" xmlns:svg="http://www.w3.org/2000/svg" xmlns="http://www.w3.org/2000/svg" xmlns:sodipodi="http://sodipodi.sourceforge.net/DTD/sodipodi-0.dtd" xmlns:inkscape="http://www.inkscape.org/namespaces/inkscape" version="1.1" x="0px" y="0px" viewBox="0 0 100 125"><g transform="translate(0,-952.36218)"><g transform="translate(14.992127,957.36218)"><path d="M 5.9881889,0 C 2.6929133,0 0,2.6929134 0,5.988189 L 0,84.011811 C 0,87.307087 2.6929133,90 5.9881889,90 l 58.0039361,0 c 3.295276,0 6.023622,-2.692913 6.023622,-5.988189 l 0,-78.023622 C 70.015747,2.6929134 67.287401,0 63.992125,0 z m 0,4.003937 58.0039361,0 c 1.133858,0 2.019685,0.8503937 2.019685,1.984252 l 0,78.023622 c 0,1.133858 -0.885827,1.984252 -2.019685,1.984252 l -58.0039361,0 c -1.1338583,0 -1.9842519,-0.850394 -1.9842519,-1.984252 l 0,-78.023622 c 0,-1.1338583 0.8503936,-1.984252 1.9842519,-1.984252 z m 8.0078741,12.011811 c -1.098425,0 -1.984252,0.885827 -1.984252,1.984252 0,1.098425 0.885827,1.984252 1.984252,1.984252 l 41.988188,0 c 1.133858,0 2.019685,-0.885827 2.019685,-1.984252 0,-1.098425 -0.885827,-1.984252 -2.019685,-1.984252 z m 0,18 c -1.098425,0 -1.984252,0.885827 -1.984252,1.984252 0,1.098425 0.885827,1.984252 1.984252,1.984252 l 41.988188,0 c 1.133858,0 2.019685,-0.885827 2.019685,-1.984252 0,-1.098425 -0.885827,-1.984252 -2.019685,-1.984252 z m 0,18 c -1.098425,0 -1.984252,0.885827 -1.984252,1.984252 0,1.098425 0.885827,1.984252 1.984252,1.984252 l 41.988188,0 c 1.133858,0 2.019685,-0.885827 2.019685,-1.984252 0,-1.098425 -0.885827,-1.984252 -2.019685,-1.984252 z m 0,18 c -1.098425,0 -1.984252,0.885827 -1.984252,1.984252 0,1.098425 0.885827,1.984252 1.984252,1.984252 l 41.988188,0 c 1.133858,0 2.019685,-0.885827 2.019685,-1.984252 0,-1.098425 -0.885827,-1.984252 -2.019685,-1.984252 z" style="" fill="#000000" fill-opacity="1" fill-rule="nonzero" stroke="none"/></g></g><text x="0" y="115" fill="#000000" font-size="5px" font-weight="bold" font-family="'Helvetica Neue', Helvetica, Arial-Unicode, Arial, Sans-serif">Created by unlimicon</text><text x="0" y="120" fill="#000000" font-size="5px" font-weight="bold" font-family="'Helvetica Neue', Helvetica, Arial-Unicode, Arial, Sans-serif">from the Noun Project</text></svg>