<svg xmlns="http://www.w3.org/2000/svg" version="1.1" viewBox="-5.0 -10.0 110.0 135.0">
 <path d="m50 6.25c24.148 0 43.75 19.602 43.75 43.75s-19.602 43.75-43.75 43.75-43.75-19.602-43.75-43.75 19.602-43.75 43.75-43.75zm0 6.25c-20.695 0-37.5 16.805-37.5 37.5s16.805 37.5 37.5 37.5 37.5-16.805 37.5-37.5-16.805-37.5-37.5-37.5zm3.125 62.5c0 1.7266-1.3984 3.125-3.125 3.125s-3.125-1.3984-3.125-3.125v-32.812c0-1.7266 1.3984-3.125 3.125-3.125s3.125 1.3984 3.125 3.125zm-3.125-51.562c2.5859 0 4.6875 2.1016 4.6875 4.6875s-2.1016 4.6875-4.6875 4.6875-4.6875-2.1016-4.6875-4.6875 2.1016-4.6875 4.6875-4.6875z" fill-rule="evenodd"/>
<text x="0.0" y="117.5" font-size="5.0" font-weight="bold" font-family="Arbeit Regular, Helvetica, Arial-Unicode, Arial, Sans-serif" fill="#000000">Created by Yudhi Restu Pebriyanto</text><text x="0.0" y="122.5" font-size="5.0" font-weight="bold" font-family="Arbeit Regular, Helvetica, Arial-Unicode, Arial, Sans-serif" fill="#000000">from Noun Project</text></svg>