<svg xmlns="http://www.w3.org/2000/svg" viewBox="0 0 24 30" x="0px" y="0px"><title>ui 17</title><g data-name="Layer 2"><path d="M22.5,11.449,18.531,7.471A.75.75,0,0,0,17.469,8.53l2.713,2.72H8a.75.75,0,0,0,0,1.5H20.182l-2.713,2.72a.75.75,0,0,0,1.062,1.06L22.5,12.55a.73.73,0,0,0,0-1.1Z"/><path d="M4,22.75h9A2.752,2.752,0,0,0,15.75,20V17a.75.75,0,0,0-1.5,0v3A1.252,1.252,0,0,1,13,21.25H4A1.252,1.252,0,0,1,2.75,20V5A1.252,1.252,0,0,1,4,3.75h9A1.252,1.252,0,0,1,14.25,5V7a.75.75,0,0,0,1.5,0V5A2.752,2.752,0,0,0,13,2.25H4A2.752,2.752,0,0,0,1.25,5V20A2.752,2.752,0,0,0,4,22.75Z"/></g><text x="0" y="39" fill="#000000" font-size="5px" font-weight="bold" font-family="'Helvetica Neue', Helvetica, Arial-Unicode, Arial, Sans-serif">Created by Nursila</text><text x="0" y="44" fill="#000000" font-size="5px" font-weight="bold" font-family="'Helvetica Neue', Helvetica, Arial-Unicode, Arial, Sans-serif">from the Noun Project</text></svg>