<svg xmlns="http://www.w3.org/2000/svg" data-name="Layer 2" viewBox="0 0 36 45" x="0px" y="0px"><path d="m34.71,33.29l-7.43-7.43c2.31-2.64,3.73-6.08,3.73-9.86,0-8.27-6.73-15-15-15S1,7.73,1,16s6.73,15,15,15c3.78,0,7.22-1.41,9.86-3.73l7.43,7.43c.2.2.45.29.71.29s.51-.1.71-.29c.39-.39.39-1.02,0-1.41ZM3,16c0-7.17,5.83-13,13-13s13,5.83,13,13-5.83,13-13,13S3,23.17,3,16Zm14-2v9.5c0,.55-.45,1-1,1s-1-.45-1-1v-9.5c0-.55.45-1,1-1s1,.45,1,1Zm.5-5c0,.83-.67,1.5-1.5,1.5s-1.5-.67-1.5-1.5.67-1.5,1.5-1.5,1.5.67,1.5,1.5Z"/><text x="0" y="51" fill="#000000" font-size="5px" font-weight="bold" font-family="'Helvetica Neue', Helvetica, Arial-Unicode, Arial, Sans-serif">Created by Humam</text><text x="0" y="56" fill="#000000" font-size="5px" font-weight="bold" font-family="'Helvetica Neue', Helvetica, Arial-Unicode, Arial, Sans-serif">from the Noun Project</text></svg>