<svg xmlns="http://www.w3.org/2000/svg" version="1.1" viewBox="-5.0 -10.0 110.0 135.0">
 <path d="m50 38.043c6.6016 0 11.949 5.3516 11.949 11.953 0 6.5977-5.3516 11.949-11.949 11.949-6.6016 0-11.953-5.3516-11.953-11.949 0-6.6016 5.3516-11.953 11.953-11.953zm0-4.7305h-0.003906c-9.2148 0-16.68 7.4688-16.68 16.684 0 9.2109 7.4688 16.684 16.684 16.684 9.2109 0 16.684-7.4727 16.684-16.684 0-9.2148-7.4727-16.684-16.684-16.684zm-4.2148-16.965 8.3711 0.003906h0.058594c0.83984 0.035157 1.5117 0.72656 1.5117 1.5781 0 0.003906 0.007813 5.1172 0.007813 5.1172 3.3555 0.70703 6.4844 2.0312 9.2695 3.8438 3.6172-3.6211 3.6172-3.6211 3.6172-3.6211 0.30859-0.30859 0.71484-0.46094 1.1211-0.46094 0.38281 0 0.76562 0.13672 1.0703 0.41406l5.957 5.9609c0.57031 0.62109 0.55469 1.5859-0.046875 2.1875-0.003906 0.003906-3.6211 3.625-3.6211 3.625 1.8125 2.7812 3.1367 5.9141 3.8477 9.2695h5.1133c0.85156 0 1.5469 0.67188 1.582 1.5156v8.4258c-0.035156 0.84375-0.73047 1.5156-1.582 1.5156l-5.1133 0.003906c-0.71094 3.3555-2.0352 6.4922-3.8477 9.2773l3.6211 3.6133c0.60156 0.60156 0.61719 1.5664 0.046875 2.1914l-5.957 5.957c-0.30469 0.27734-0.6875 0.41797-1.0703 0.41797-0.40625 0-0.8125-0.15625-1.1211-0.46484l-3.6211-3.6133c-2.7852 1.8086-5.918 3.1328-9.2773 3.8398 0.003906 5.1133 0.003906 5.1133 0.003906 5.1133 0 0.85156-0.67187 1.5469-1.5117 1.582h-8.4297c-0.84375-0.035156-1.5156-0.73047-1.5156-1.582v-5.1094c-1.6289-0.34766-3.207-0.83594-4.7148-1.457h-0.003907c-1.5977-0.65625-3.1211-1.457-4.5547-2.3906l-3.6211 3.6172c-0.30859 0.30859-0.71484 0.46484-1.1172 0.46484-0.38672 0-0.76953-0.14062-1.0703-0.41797l-5.9609-5.957c-0.57031-0.625-0.55469-1.5898 0.046876-2.1914 0.003906 0 3.6133-3.6094 3.6133-3.6094-0.89062-1.3867-1.6641-2.8438-2.3047-4.3711v-0.003907c-0.66016-1.5703-1.1758-3.207-1.5352-4.9102h-5.1133c-0.85156 0-1.543-0.67188-1.582-1.5117v-8.4297c0.039063-0.84375 0.73047-1.5156 1.582-1.5156l5.1133 0.003906c0.71094-3.3594 2.0312-6.4922 3.8398-9.2734-3.6094-3.6211-3.6133-3.625-3.6133-3.625-0.60156-0.60156-0.61719-1.5664-0.046876-2.1875l5.9609-5.9609c0.30078-0.27734 0.6875-0.41406 1.0703-0.41406 0.40234 0 0.80859 0.15234 1.1172 0.46094l3.6211 3.6211c2.7812-1.8125 5.9141-3.1367 9.2695-3.8438 0.003906-5.1133 0.003906-5.1172 0.003906-5.1172 0-0.85156 0.67188-1.543 1.5156-1.582zm8.4453-4.7227-8.4648 0.003906v0.003906c-3.4414 0.039063-6.2188 2.8438-6.2188 6.2969l-0.003906 1.5195c-1.2891 0.4375-2.543 0.96094-3.7539 1.5547l-1.0742-1.0742c-1.2305-1.2305-2.8438-1.8438-4.457-1.8438-1.5859 0-3.1758 0.59375-4.3984 1.7852l-5.9805 5.9883c-2.4062 2.4648-2.3867 6.4102 0.054688 8.8516l1.0742 1.0781c-0.59766 1.2109-1.1172 2.4648-1.5586 3.7539l-1.5273 0.007812c-3.4453 0-6.2461 2.7734-6.293 6.2109v8.4648c0.046875 3.4414 2.8516 6.2188 6.3008 6.2188h1.5195c0.44141 1.293 0.96484 2.5508 1.5625 3.7656l-1.0781 1.0703c-2.4414 2.4375-2.4609 6.3867-0.058594 8.8516l5.9844 5.9844c1.2227 1.1914 2.8125 1.7852 4.3984 1.7852 1.6133 0 3.2266-0.61328 4.457-1.8438l1.0703-1.0703h0.003906c1.2148 0.59375 2.4727 1.1172 3.7656 1.5586l-0.007813 1.5156c0 3.4492 2.7773 6.2539 6.2188 6.3008h8.4648c3.4414-0.046875 6.2188-2.8516 6.2188-6.3008l-0.003907-1.5078c1.293-0.44922 2.5469-0.97266 3.7617-1.5664l1.0781 1.0703c1.2305 1.2305 2.8398 1.8438 4.4531 1.8438 1.5859 0 3.1758-0.59375 4.3984-1.7852l5.9844-5.9844c2.4023-2.4648 2.3828-6.4141-0.058594-8.8516l-1.0742-1.0664c0.59766-1.2227 1.1172-2.4766 1.5586-3.7695h1.5195c3.4492 0 6.2539-2.7773 6.3008-6.2188l-0.003907-8.4648c-0.042969-3.4414-2.8477-6.2188-6.2969-6.2188l-1.5195 0.003906c-0.44141-1.293-0.96094-2.5469-1.5547-3.7578l1.0703-1.0781c2.4414-2.4414 2.4609-6.3867 0.058594-8.8555l-5.9844-5.9805c-1.2227-1.1953-2.8125-1.7891-4.3984-1.7891-1.6133 0-3.2266 0.61328-4.4531 1.8438l-1.0781 1.0781c-1.207-0.59766-2.4609-1.1172-3.7539-1.5625l-0.003906-1.5156c0-3.4531-2.7773-6.2578-6.2188-6.3047z"/>
<text x="0.0" y="117.5" font-size="5.0" font-weight="bold" font-family="Arbeit Regular, Helvetica, Arial-Unicode, Arial, Sans-serif" fill="#000000">Created by Style_icon</text><text x="0.0" y="122.5" font-size="5.0" font-weight="bold" font-family="Arbeit Regular, Helvetica, Arial-Unicode, Arial, Sans-serif" fill="#000000">from Noun Project</text></svg>